<?xml version="1.0" standalone="no"?>
<!DOCTYPE svg PUBLIC "-//W3C//DTD SVG 20010904//EN"
 "http://www.w3.org/TR/2001/REC-SVG-20010904/DTD/svg10.dtd">
<svg version="1.0" xmlns="http://www.w3.org/2000/svg"
 width="2048.000000pt" height="2048.000000pt" viewBox="0 0 2048.000000 2048.000000"
 preserveAspectRatio="xMidYMid meet">

<g transform="translate(0.000000,2048.000000) scale(0.100000,-0.100000)"
fill="#000000" stroke="none">
<path d="M11985 16373 c-43 -19 -522 -260 -1050 -528 -359 -182 -1118 -565
-2710 -1366 l-1080 -544 -1090 -5 -1090 -5 -100 -28 c-196 -55 -357 -147 -490
-281 -115 -115 -202 -274 -251 -461 -18 -68 -19 -201 -19 -4160 l0 -4090 23
-85 c87 -331 357 -600 694 -692 l83 -23 4880 0 4880 0 104 23 c277 62 513 188
713 381 231 221 375 476 454 801 l28 115 3 767 4 768 27 6 c89 18 120 28 165
50 71 36 143 112 180 192 l32 67 0 920 0 920 -32 68 c-58 123 -170 206 -307
230 l-66 11 0 912 c0 983 -1 995 -53 1149 -82 239 -217 429 -400 566 -80 60
-246 149 -317 170 l-39 12 -3 531 c-5 601 -3 585 -86 756 -39 80 -60 109 -136
186 -77 77 -106 98 -186 137 -155 77 -175 80 -512 85 l-298 4 -34 111 c-19 62
-87 283 -151 492 -193 630 -324 1045 -340 1074 -24 48 -80 89 -130 97 -59 8
-64 7 -360 -80 -137 -41 -260 -76 -272 -79 -20 -4 -39 29 -214 362 -105 201
-202 381 -216 399 -50 67 -162 98 -238 65z m124 -703 c87 -165 126 -247 118
-252 -12 -6 -202 -65 -737 -226 -710 -215 -991 -301 -1679 -513 -409 -126
-746 -228 -748 -226 -2 2 151 81 339 175 189 94 840 423 1448 731 608 308
1111 559 1118 558 7 -1 71 -112 141 -247z m1022 -482 c11 -40 52 -176 90 -303
72 -240 75 -250 60 -240 -5 3 -13 0 -16 -6 -5 -7 1 -9 15 -7 25 3 7 55 210
-602 191 -621 230 -755 218 -759 -7 -2 -7 -6 0 -10 18 -11 202 -605 191 -615
-5 -4 -507 -165 -868 -277 l-254 -79 -1151 0 c-908 0 -1155 3 -1165 13 -11 10
-12 9 -7 -1 7 -11 -208 -12 -1201 -8 -664 2 -1219 3 -1233 3 -14 -1 -270 -2
-568 -2 l-544 0 -54 179 c-30 99 -54 186 -54 194 0 9 -20 79 -44 156 -70 222
-136 443 -136 455 0 5 33 20 73 31 196 57 534 161 547 169 8 4 107 36 220 70
113 34 446 136 740 226 294 90 792 241 1105 336 653 197 684 206 1330 404 264
81 566 173 670 205 105 32 377 114 605 183 228 69 456 138 505 153 163 48 438
132 550 167 61 19 118 35 127 36 13 1 22 -17 39 -71z m-6961 -1677 c0 -27 -57
-64 -245 -160 -169 -85 -214 -113 -232 -140 -32 -47 -46 -105 -38 -155 4 -23
88 -199 192 -403 l184 -363 -478 0 c-542 0 -561 2 -702 72 -122 60 -223 161
-279 278 -48 102 -62 163 -62 278 1 299 203 528 525 596 41 8 1135 6 1135 -3z
m8382 -24 c72 -35 134 -97 167 -167 l26 -55 3 -487 3 -488 -308 1 -308 0 64
24 c110 41 168 121 159 222 -4 48 -83 319 -213 733 -37 118 -70 223 -73 233
-4 18 6 18 209 15 211 -3 215 -3 271 -31z m-8203 -732 c50 -165 101 -335 115
-379 14 -43 21 -75 17 -70 -10 11 -361 696 -361 704 0 3 28 20 63 37 42 21 64
27 69 19 3 -6 47 -146 97 -311z m-1782 -699 c111 -79 282 -145 427 -165 55 -8
1520 -11 4987 -11 4450 0 4917 -1 4987 -16 314 -65 552 -321 592 -636 6 -52
10 -405 10 -945 l-1 -863 -829 0 c-872 0 -915 -2 -1069 -46 -462 -134 -793
-511 -876 -998 -71 -414 111 -875 450 -1146 137 -108 277 -177 475 -233 73
-21 94 -21 958 -24 l882 -4 2 -407 c4 -808 0 -1036 -23 -1147 -24 -116 -82
-272 -136 -364 -158 -267 -431 -461 -743 -528 -82 -17 -273 -18 -4870 -18
-4541 0 -4788 1 -4849 18 -215 59 -370 212 -416 410 -13 57 -15 484 -17 3611
-2 1950 0 3546 4 3546 5 0 29 -15 55 -34z m11404 -3258 c0 -117 1 -485 2 -818
l2 -605 -1040 0 -1040 0 -85 23 c-163 43 -281 113 -396 234 -157 166 -233 371
-221 598 6 118 26 205 67 297 107 237 339 423 591 472 24 5 511 9 1082 10
l1037 1 1 -212z"/>
<path d="M12530 14984 c0 -6 7 -19 16 -30 14 -18 14 -18 3 6 -14 31 -19 36
-19 24z"/>
<path d="M12600 14866 c0 -2 8 -10 18 -17 15 -13 16 -12 3 4 -13 16 -21 21
-21 13z"/>
<path d="M12988 14633 c7 -3 16 -2 19 1 4 3 -2 6 -13 5 -11 0 -14 -3 -6 -6z"/>
<path d="M13058 14623 c12 -2 30 -2 40 0 9 3 -1 5 -23 4 -22 0 -30 -2 -17 -4z"/>
<path d="M13208 14623 c6 -2 18 -2 25 0 6 3 1 5 -13 5 -14 0 -19 -2 -12 -5z"/>
<path d="M11968 14563 c7 -3 16 -2 19 1 4 3 -2 6 -13 5 -11 0 -14 -3 -6 -6z"/>
<path d="M11868 14533 c7 -3 16 -2 19 1 4 3 -2 6 -13 5 -11 0 -14 -3 -6 -6z"/>
<path d="M12088 14413 c7 -3 16 -2 19 1 4 3 -2 6 -13 5 -11 0 -14 -3 -6 -6z"/>
<path d="M11958 14373 c7 -3 16 -2 19 1 4 3 -2 6 -13 5 -11 0 -14 -3 -6 -6z"/>
<path d="M11155 14309 c-4 -6 -5 -12 -2 -15 2 -3 7 2 10 11 7 17 1 20 -8 4z"/>
<path d="M11160 14194 c1 -13 29 -48 34 -43 2 2 -4 15 -15 28 -10 13 -19 19
-19 15z"/>
<path d="M12365 14160 c-13 -6 -15 -9 -5 -9 8 0 22 4 30 9 18 12 2 12 -25 0z"/>
<path d="M11228 14153 c7 -3 16 -2 19 1 4 3 -2 6 -13 5 -11 0 -14 -3 -6 -6z"/>
<path d="M12288 14133 c7 -3 16 -2 19 1 4 3 -2 6 -13 5 -11 0 -14 -3 -6 -6z"/>
<path d="M10045 14009 c-15 -7 -13 -8 12 -3 30 5 32 3 44 -35 7 -23 14 -39 16
-37 3 2 -1 22 -8 45 -13 42 -25 48 -64 30z"/>
<path d="M9985 13990 c-13 -6 -15 -9 -5 -9 8 0 22 4 30 9 18 12 2 12 -25 0z"/>
<path d="M9951 13964 c0 -11 3 -14 6 -6 3 7 2 16 -1 19 -3 4 -6 -2 -5 -13z"/>
<path d="M11676 13951 c-11 -4 -15 -10 -10 -13 5 -2 20 1 34 8 26 14 8 18 -24
5z"/>
<path d="M11598 13923 c7 -3 16 -2 19 1 4 3 -2 6 -13 5 -11 0 -14 -3 -6 -6z"/>
<path d="M10121 13910 c0 -8 4 -22 9 -30 12 -18 12 -2 0 25 -6 13 -9 15 -9 5z"/>
<path d="M11500 13889 c0 -5 5 -7 10 -4 6 3 10 8 10 11 0 2 -4 4 -10 4 -5 0
-10 -5 -10 -11z"/>
<path d="M10203 13883 c7 -7 149 -4 156 3 2 2 -33 4 -79 4 -46 0 -80 -3 -77
-7z"/>
<path d="M10158 13873 c7 -3 16 -2 19 1 4 3 -2 6 -13 5 -11 0 -14 -3 -6 -6z"/>
<path d="M10580 13768 c24 -27 45 -48 47 -48 8 0 0 9 -44 50 l-48 45 45 -47z"/>
<path d="M11658 13753 c7 -3 16 -2 19 1 4 3 -2 6 -13 5 -11 0 -14 -3 -6 -6z"/>
<path d="M11558 13723 c7 -3 16 -2 19 1 4 3 -2 6 -13 5 -11 0 -14 -3 -6 -6z"/>
<path d="M9789 13683 l-34 -38 38 34 c20 19 37 36 37 38 0 8 -8 0 -41 -34z"/>
<path d="M12982 13683 c-2 -38 -6 -45 -34 -58 -24 -11 -26 -13 -8 -9 40 10 52
27 47 70 l-4 39 -1 -42z"/>
<path d="M10641 13690 c14 -31 19 -36 19 -24 0 6 -7 19 -16 30 -14 18 -14 18
-3 -6z"/>
<path d="M10248 13653 c7 -3 16 -2 19 1 4 3 -2 6 -13 5 -11 0 -14 -3 -6 -6z"/>
<path d="M10325 13630 c22 -10 56 -32 75 -47 19 -15 29 -20 22 -11 -20 25
-103 78 -121 78 -9 0 2 -9 24 -20z"/>
<path d="M9743 13628 c-15 -20 -25 -38 -20 -38 3 0 12 11 21 25 17 26 16 35
-1 13z"/>
<path d="M12888 13603 c7 -3 16 -2 19 1 4 3 -2 6 -13 5 -11 0 -14 -3 -6 -6z"/>
<path d="M12795 13580 c-13 -5 -14 -9 -5 -9 8 0 24 4 35 9 13 5 14 9 5 9 -8 0
-24 -4 -35 -9z"/>
<path d="M9706 13565 c-9 -26 -7 -32 5 -12 6 10 9 21 6 23 -2 3 -7 -2 -11 -11z"/>
<path d="M10251 13499 c-1 -18 29 -112 35 -107 2 2 -5 31 -15 63 -11 33 -20
53 -20 44z"/>
<path d="M11870 13485 c-19 -7 -28 -13 -20 -13 8 0 31 6 50 13 19 7 28 13 20
13 -8 0 -31 -6 -50 -13z"/>
<path d="M8245 13440 c-13 -6 -15 -9 -5 -9 8 0 22 4 30 9 18 12 2 12 -25 0z"/>
<path d="M11725 13440 c-13 -5 -14 -9 -5 -9 8 0 24 4 35 9 13 5 14 9 5 9 -8 0
-24 -4 -35 -9z"/>
<path d="M8180 13420 c-18 -12 -2 -12 25 0 13 6 15 9 5 9 -8 0 -22 -4 -30 -9z"/>
<path d="M10122 13425 c0 -5 6 -26 13 -45 7 -19 14 -28 14 -20 0 8 -6 29 -14
45 -7 17 -13 26 -13 20z"/>
<path d="M9941 13404 c0 -11 3 -14 6 -6 3 7 2 16 -1 19 -3 4 -6 -2 -5 -13z"/>
<path d="M8068 13383 c7 -3 16 -2 19 1 4 3 -2 6 -13 5 -11 0 -14 -3 -6 -6z"/>
<path d="M7985 13360 c-13 -6 -15 -9 -5 -9 8 0 22 4 30 9 18 12 2 12 -25 0z"/>
<path d="M9950 13362 c0 -30 86 -102 122 -102 7 0 -8 10 -32 23 -25 12 -55 37
-67 56 -13 19 -23 29 -23 23z"/>
<path d="M9671 13344 c0 -11 3 -14 6 -6 3 7 2 16 -1 19 -3 4 -6 -2 -5 -13z"/>
<path d="M10151 13330 c0 -8 4 -24 9 -35 5 -13 9 -14 9 -5 0 8 -4 24 -9 35 -5
13 -9 14 -9 5z"/>
<path d="M11968 13323 c7 -3 16 -2 19 1 4 3 -2 6 -13 5 -11 0 -14 -3 -6 -6z"/>
<path d="M13070 13313 c8 -3 22 -11 30 -17 13 -10 13 -9 1 7 -7 9 -21 17 -30
16 -13 0 -14 -1 -1 -6z"/>
<path d="M13025 13300 c-3 -6 1 -7 9 -4 18 7 21 14 7 14 -6 0 -13 -4 -16 -10z"/>
<path d="M12975 13290 c-13 -6 -15 -9 -5 -9 8 0 22 4 30 9 18 12 2 12 -25 0z"/>
<path d="M8260 13260 c-18 -12 -2 -12 25 0 13 6 15 9 5 9 -8 0 -22 -4 -30 -9z"/>
<path d="M10098 13253 c6 -2 18 -2 25 0 6 3 1 5 -13 5 -14 0 -19 -2 -12 -5z"/>
<path d="M13640 13240 c-9 -6 -10 -10 -3 -10 6 0 15 5 18 10 8 12 4 12 -15 0z"/>
<path d="M8130 13220 c-18 -12 -2 -12 25 0 13 6 15 9 5 9 -8 0 -22 -4 -30 -9z"/>
<path d="M10671 13226 c10 -9 89 -46 89 -41 0 5 -75 45 -86 45 -4 0 -5 -2 -3
-4z"/>
<path d="M13131 13214 c0 -11 3 -14 6 -6 3 7 2 16 -1 19 -3 4 -6 -2 -5 -13z"/>
<path d="M8065 13200 c-13 -5 -14 -9 -5 -9 8 0 24 4 35 9 13 5 14 9 5 9 -8 0
-24 -4 -35 -9z"/>
<path d="M13122 13162 c-11 -25 -11 -25 4 -10 9 9 15 21 13 27 -2 6 -10 -2
-17 -17z"/>
<path d="M10785 13160 c10 -11 20 -20 23 -20 3 0 -3 9 -13 20 -10 11 -20 20
-23 20 -3 0 3 -9 13 -20z"/>
<path d="M9760 13127 c0 -2 15 -16 33 -33 l32 -29 -29 33 c-28 30 -36 37 -36
29z"/>
<path d="M12285 13080 c-13 -6 -15 -9 -5 -9 8 0 22 4 30 9 18 12 2 12 -25 0z"/>
<path d="M13414 13058 l-19 -23 23 19 c12 11 22 21 22 23 0 8 -8 2 -26 -19z"/>
<path d="M9830 13066 c0 -3 14 -12 30 -21 17 -9 30 -13 30 -11 0 3 -13 12 -30
21 -16 9 -30 13 -30 11z"/>
<path d="M12205 13055 c-40 -14 -40 -14 -5 -8 19 3 42 9 50 14 22 12 1 9 -45
-6z"/>
<path d="M9910 13020 c8 -5 20 -10 25 -10 6 0 3 5 -5 10 -8 5 -19 10 -25 10
-5 0 -3 -5 5 -10z"/>
<path d="M12055 13010 c-13 -5 -14 -9 -5 -9 8 0 24 4 35 9 13 5 14 9 5 9 -8 0
-24 -4 -35 -9z"/>
<path d="M10478 12993 c7 -3 16 -2 19 1 4 3 -2 6 -13 5 -11 0 -14 -3 -6 -6z"/>
<path d="M10911 12954 c0 -11 3 -14 6 -6 3 7 2 16 -1 19 -3 4 -6 -2 -5 -13z"/>
<path d="M10921 12914 c0 -11 3 -14 6 -6 3 7 2 16 -1 19 -3 4 -6 -2 -5 -13z"/>
<path d="M12298 12893 c7 -3 16 -2 19 1 4 3 -2 6 -13 5 -11 0 -14 -3 -6 -6z"/>
<path d="M10441 12880 c0 -8 4 -22 9 -30 12 -18 12 -2 0 25 -6 13 -9 15 -9 5z"/>
<path d="M10286 12855 c11 -48 25 -76 18 -35 -4 19 -10 42 -15 50 -6 10 -7 5
-3 -15z"/>
<path d="M11580 12856 c-6 -8 -10 -25 -7 -38 4 -21 4 -20 6 4 0 15 9 32 19 37
9 6 12 11 6 11 -6 0 -17 -7 -24 -14z"/>
<path d="M12175 12860 c-13 -5 -14 -9 -5 -9 8 0 24 4 35 9 13 5 14 9 5 9 -8 0
-24 -4 -35 -9z"/>
<path d="M7695 12740 c-13 -6 -15 -9 -5 -9 8 0 22 4 30 9 18 12 2 12 -25 0z"/>
<path d="M7618 12713 c7 -3 16 -2 19 1 4 3 -2 6 -13 5 -11 0 -14 -3 -6 -6z"/>
<path d="M10038 12704 c-39 -20 -35 -28 3 -8 31 16 32 15 56 -13 l25 -28 -22
33 c-24 36 -25 37 -62 16z"/>
<path d="M11668 12703 c7 -3 16 -2 19 1 4 3 -2 6 -13 5 -11 0 -14 -3 -6 -6z"/>
<path d="M6825 12680 c-3 -6 1 -7 9 -4 18 7 21 14 7 14 -6 0 -13 -4 -16 -10z"/>
<path d="M7455 12659 c-11 -16 -1 -19 13 -3 7 8 8 14 3 14 -5 0 -13 -5 -16
-11z"/>
<path d="M10140 12646 c0 -2 8 -10 18 -17 15 -13 16 -12 3 4 -13 16 -21 21
-21 13z"/>
<path d="M7451 12594 c0 -11 3 -14 6 -6 3 7 2 16 -1 19 -3 4 -6 -2 -5 -13z"/>
<path d="M7768 12573 c7 -3 16 -2 19 1 4 3 -2 6 -13 5 -11 0 -14 -3 -6 -6z"/>
<path d="M7675 12552 c-27 -8 -45 -17 -40 -19 6 -2 35 5 65 16 65 23 47 26
-25 3z"/>
<path d="M13271 12554 c0 -11 3 -14 6 -6 3 7 2 16 -1 19 -3 4 -6 -2 -5 -13z"/>
<path d="M7480 12520 c6 -11 15 -20 20 -20 6 0 2 9 -7 20 -10 11 -19 20 -21
20 -1 0 2 -9 8 -20z"/>
<path d="M7535 12510 l-20 -9 20 0 c11 0 29 4 40 9 l20 9 -20 0 c-11 0 -29 -4
-40 -9z"/>
<path d="M9900 12496 c0 -2 8 -10 18 -17 15 -13 16 -12 3 4 -13 16 -21 21 -21
13z"/>
<path d="M8975 12410 c-13 -5 -14 -9 -5 -9 8 0 24 4 35 9 13 5 14 9 5 9 -8 0
-24 -4 -35 -9z"/>
<path d="M10398 12333 c7 -3 16 -2 19 1 4 3 -2 6 -13 5 -11 0 -14 -3 -6 -6z"/>
<path d="M10273 12323 c15 -2 39 -2 55 0 15 2 2 4 -28 4 -30 0 -43 -2 -27 -4z"/>
<path d="M5696 11459 c-98 -23 -156 -95 -156 -193 0 -92 36 -147 120 -185 44
-20 61 -21 999 -21 726 0 963 3 995 12 59 18 121 84 134 141 20 96 -22 187
-105 228 l-48 24 -950 2 c-555 1 -966 -3 -989 -8z"/>
<path d="M8565 11461 c-101 -25 -165 -105 -165 -206 1 -73 73 -164 147 -184
26 -8 978 -11 3043 -11 2900 0 3006 -1 3045 -19 48 -22 79 -54 100 -103 13
-32 15 -104 15 -490 l0 -453 24 -52 c76 -163 320 -143 371 30 22 73 22 908 0
1012 -37 176 -163 343 -315 417 -150 73 108 68 -3232 67 -1652 -1 -3016 -4
-3033 -8z"/>
<path d="M14862 6533 c-44 -21 -89 -74 -101 -120 -7 -22 -11 -154 -11 -318 0
-218 -3 -294 -15 -340 -48 -188 -195 -347 -374 -407 -63 -21 -87 -22 -546 -28
-539 -6 -518 -3 -575 -81 -73 -101 -35 -251 77 -301 41 -18 67 -19 541 -16
475 4 500 5 575 26 342 95 612 368 698 704 19 73 22 119 26 393 3 209 1 324
-6 351 -27 99 -96 154 -196 154 -35 0 -74 -7 -93 -17z"/>
<path d="M13998 8609 c-66 -15 -160 -69 -213 -122 -132 -133 -159 -324 -70
-504 154 -311 620 -304 775 11 96 194 42 413 -131 541 -101 74 -241 103 -361
74z m180 -333 c34 -32 37 -39 37 -90 0 -49 -4 -59 -33 -88 -28 -29 -39 -33
-83 -33 -46 0 -54 4 -85 37 -27 30 -34 46 -34 78 0 80 45 130 117 130 35 0 50
-6 81 -34z"/>
</g>
</svg>
